<?xml version="1.0" standalone="no"?>
<!DOCTYPE svg PUBLIC "-//W3C//DTD SVG 20010904//EN"
 "http://www.w3.org/TR/2001/REC-SVG-20010904/DTD/svg10.dtd">
<svg version="1.0" xmlns="http://www.w3.org/2000/svg"
 width="629.000000pt" height="631.000000pt" viewBox="0 0 629.000000 631.000000"
 preserveAspectRatio="xMidYMid meet">

<g transform="translate(0.000000,631.000000) scale(0.100000,-0.100000)"
fill="#000000" stroke="none">
<path d="M0 6275 l0 -35 3145 0 3145 0 0 35 0 35 -3145 0 -3145 0 0 -35z"/>
<path d="M3231 5656 c-5 -6 -13 -104 -17 -218 l-7 -208 37 0 36 0 0 73 c0 47
5 80 14 92 13 19 15 19 33 3 11 -10 36 -50 57 -90 22 -40 43 -79 49 -85 9 -13
77 -19 77 -7 0 3 -20 43 -45 88 -25 46 -45 89 -45 95 0 7 13 26 30 42 72 72
35 198 -64 213 -73 12 -146 13 -155 2z m153 -77 c27 -21 34 -56 16 -88 -12
-23 -76 -37 -96 -20 -14 12 -19 83 -8 113 9 23 56 20 88 -5z"/>
<path d="M2837 5638 c-55 -32 -77 -85 -76 -184 1 -108 30 -179 93 -222 46 -31
140 -31 187 1 51 34 73 88 73 177 0 161 -68 250 -191 250 -31 0 -61 -8 -86
-22z m134 -54 c91 -47 94 -287 4 -310 -34 -8 -71 2 -94 28 -46 49 -65 175 -37
242 23 56 69 70 127 40z"/>
<path d="M2510 5600 c-41 -11 -85 -22 -97 -25 -32 -8 -30 -28 24 -246 46 -189
46 -189 74 -189 15 0 31 5 34 10 4 6 -3 48 -14 94 -12 47 -21 89 -21 95 0 6
28 19 63 29 54 16 62 21 62 43 0 27 -12 29 -97 15 l-47 -8 -12 40 c-6 22 -9
47 -6 54 3 9 40 22 92 33 83 17 86 19 83 44 -4 34 -36 36 -138 11z"/>
<path d="M3860 5558 c-5 -13 -30 -104 -55 -203 -41 -166 -43 -181 -28 -192 42
-32 57 -14 79 95 l7 33 71 -6 c82 -7 109 3 143 54 15 23 23 49 23 79 0 64 -50
112 -146 141 -87 26 -82 26 -94 -1z m150 -95 c25 -32 25 -50 0 -90 -16 -27
-26 -33 -53 -33 -18 0 -42 6 -52 14 -17 12 -18 18 -6 72 7 33 18 64 23 71 13
17 63 -3 88 -34z"/>
<path d="M1940 5410 c-125 -56 -123 -51 -58 -191 24 -52 62 -133 84 -181 21
-48 44 -88 51 -88 7 0 60 22 118 50 80 37 106 54 103 66 -7 38 -33 39 -112 4
-42 -18 -80 -30 -83 -26 -14 14 -51 111 -46 120 3 4 26 17 50 28 50 22 60 37
44 67 -11 21 -11 21 -68 -4 -41 -19 -59 -22 -69 -14 -13 11 -39 78 -32 83 1 2
38 20 81 39 42 20 77 41 77 47 0 16 -19 50 -28 49 -4 -1 -54 -22 -112 -49z"/>
<path d="M4250 5389 c-42 -26 -53 -39 -87 -104 -33 -63 -42 -155 -20 -206 8
-20 32 -49 53 -65 34 -26 45 -29 115 -29 75 0 79 1 114 35 64 62 105 177 91
255 -8 43 -59 103 -103 121 -49 21 -122 17 -163 -7z m140 -46 c14 -9 30 -24
37 -33 20 -24 15 -119 -8 -170 -49 -108 -125 -141 -185 -79 -25 26 -29 38 -29
88 1 103 73 211 140 211 11 0 32 -8 45 -17z"/>
<path d="M1620 5233 c-38 -15 -129 -77 -135 -90 -5 -16 167 -314 208 -360 15
-17 24 -20 38 -12 27 14 24 34 -17 100 -64 106 -29 125 100 55 76 -41 87 -45
111 -34 41 19 26 40 -65 88 l-85 45 3 67 c4 63 2 68 -30 103 -25 27 -43 37
-73 40 -22 3 -47 2 -55 -2z m80 -93 c29 -29 25 -57 -12 -91 -37 -34 -50 -36
-69 -11 -46 57 -49 86 -11 106 38 21 68 20 92 -4z"/>
<path d="M4666 5208 c-98 -154 -187 -305 -189 -320 -1 -14 23 -37 91 -84 94
-66 125 -75 130 -39 2 15 -15 31 -64 64 -36 25 -68 50 -70 56 -3 7 27 63 66
126 38 63 80 132 91 153 20 38 20 40 3 53 -26 19 -42 16 -58 -9z"/>
<path d="M1247 4970 c-118 -101 -131 -121 -96 -143 13 -8 25 -3 55 21 21 18
45 32 54 32 8 -1 33 -24 55 -52 22 -29 73 -91 113 -140 66 -80 74 -87 92 -76
11 7 20 20 20 30 0 9 -46 74 -103 145 -56 70 -106 133 -110 140 -4 6 12 30 40
57 40 38 46 48 37 63 -6 10 -17 19 -25 21 -8 1 -67 -43 -132 -98z"/>
<path d="M4964 4982 c-12 -15 -67 -85 -123 -156 -56 -70 -101 -136 -101 -147
0 -12 10 -21 27 -25 23 -6 31 -2 52 27 14 18 70 89 124 156 53 68 97 127 97
131 0 12 -34 42 -46 41 -5 0 -19 -12 -30 -27z"/>
<path d="M5065 4773 c-44 -23 -104 -82 -126 -125 -25 -49 -25 -132 0 -178 24
-45 89 -91 132 -93 28 -2 35 2 37 21 3 17 -4 26 -30 36 -102 43 -114 148 -26
235 89 87 169 75 234 -35 9 -16 15 -17 37 -7 15 7 27 16 27 21 0 24 -67 105
-101 122 -47 25 -141 26 -184 3z"/>
<path d="M1016 4751 c-9 -9 -16 -21 -16 -25 0 -5 39 -46 87 -92 48 -46 84 -86
80 -91 -7 -6 -189 16 -279 34 -21 4 -29 1 -35 -13 -5 -14 24 -48 143 -161 150
-144 184 -165 192 -119 3 13 -24 46 -84 107 -48 49 -85 91 -82 95 4 3 67 -4
142 -15 160 -25 186 -26 186 -7 0 12 -274 280 -305 298 -7 4 -19 0 -29 -11z"/>
<path d="M3824 4483 c-37 -49 -91 -117 -118 -153 -28 -36 -78 -101 -110 -145
-33 -44 -79 -100 -102 -125 -45 -48 -223 -281 -243 -318 -10 -18 -8 -25 9 -42
27 -27 25 -44 -6 -86 -18 -23 -22 -34 -13 -34 8 0 20 9 27 20 8 13 22 20 40
19 15 0 36 2 47 6 23 7 49 -15 156 -136 72 -80 239 -297 239 -309 0 -22 -109
-20 -137 3 -7 5 -13 7 -13 4 0 -4 -19 1 -42 9 -180 63 -317 58 -456 -17 -40
-22 -77 -37 -82 -34 -6 3 -7 -1 -4 -10 4 -8 14 -14 23 -11 9 2 27 8 41 11 14
4 45 17 70 28 58 27 196 33 320 13 133 -22 139 -32 23 -40 -91 -6 -209 -22
-342 -46 -96 -18 -100 -16 -191 67 -131 118 -563 543 -558 549 10 9 266 -214
437 -380 62 -61 112 -106 110 -99 -8 23 -264 277 -452 448 -78 71 -97 103 -54
91 12 -3 37 -6 55 -6 29 0 52 -19 196 -160 222 -218 339 -311 393 -310 11 1 5
7 -15 15 -18 8 -39 20 -46 27 -7 7 -91 83 -186 168 -180 162 -303 292 -327
348 -12 30 -56 62 -68 50 -3 -3 6 -25 19 -48 14 -24 22 -48 19 -53 -3 -4 -40
-5 -84 -1 -65 5 -79 4 -79 -8 0 -8 6 -20 12 -26 10 -10 8 -14 -10 -18 -12 -4
-22 -14 -22 -24 0 -12 -11 -20 -35 -24 -19 -4 -35 -11 -35 -15 0 -5 37 -42 82
-82 149 -134 158 -143 151 -150 -5 -4 -84 -14 -178 -23 -481 -48 -550 -67
-576 -159 -16 -58 -16 -153 0 -210 8 -26 12 -49 10 -51 -2 -2 -76 -11 -164
-20 -194 -20 -219 -27 -269 -68 -129 -107 -81 -321 85 -381 24 -9 89 -31 144
-49 55 -18 100 -38 100 -45 0 -6 -16 -22 -35 -35 -138 -93 -132 -234 15 -335
30 -21 150 -48 340 -78 55 -8 125 -20 155 -25 60 -11 602 -89 795 -114 138
-17 235 -29 425 -52 74 -8 186 -22 248 -30 189 -24 189 -24 382 51 19 8 78 30
130 51 217 84 824 350 902 395 106 61 84 108 -64 138 -49 11 -58 16 -67 42
-11 32 1 81 27 111 8 9 49 31 91 49 92 38 111 58 73 78 -10 5 -99 21 -198 36
-105 15 -189 33 -203 42 -14 9 -56 25 -94 37 -114 35 -107 38 181 86 96 16
180 34 188 41 8 6 14 22 14 34 0 18 -14 28 -82 56 -111 46 -111 62 1 69 47 3
86 10 88 16 2 5 -12 28 -32 51 -19 23 -35 44 -35 47 0 3 18 11 39 17 43 13 58
34 40 55 -6 8 -56 28 -111 46 -110 34 -88 16 -233 193 -125 152 -246 283 -275
297 -18 10 -38 24 -42 33 -11 19 -25 19 -62 0 -36 -19 -50 -9 -64 45 -11 43
-27 42 -98 -6 -28 -19 -55 -34 -61 -34 -6 0 -30 29 -53 65 -23 36 -48 65 -55
65 -6 0 -17 -11 -23 -25 -11 -23 -9 -29 12 -48 14 -12 33 -36 43 -54 10 -17
47 -79 83 -138 36 -58 70 -114 75 -123 8 -14 88 -134 140 -209 21 -29 -59 -62
-215 -87 -106 -18 -178 -42 -208 -70 l-24 -21 -25 30 c-117 137 -202 247 -252
325 -49 75 -56 102 -36 140 21 40 42 52 166 95 58 20 118 47 134 61 15 13 26
24 23 24 -11 0 -232 -81 -261 -96 -18 -9 -47 -27 -64 -41 -18 -13 -33 -20 -33
-16 0 9 10 23 85 125 22 29 45 61 50 70 9 14 82 110 278 361 104 134 127 173
127 219 0 49 -13 68 -46 68 -17 0 -41 -23 -90 -87z m96 15 c-1 -16 -29 -55
-35 -48 -7 8 -45 -28 -45 -42 0 -6 11 -1 25 12 23 21 25 22 18 5 -30 -73 -71
-130 -144 -199 -82 -79 -107 -87 -72 -25 38 67 43 74 43 62 0 -38 61 12 96 79
23 45 9 46 -31 3 -19 -21 -37 -36 -39 -34 -9 9 39 76 79 110 22 18 51 46 65
60 28 30 40 35 40 17z m-386 -510 c20 -28 20 -39 2 -32 -16 6 -40 54 -26 54 5
0 16 -10 24 -22z m579 -175 c65 -161 165 -328 247 -409 69 -68 65 -96 -16
-137 -41 -21 -194 -47 -277 -47 -79 0 -201 -25 -221 -46 -20 -20 -26 -18 -26
11 0 15 9 31 24 40 23 16 52 21 241 45 135 17 143 19 175 51 l29 30 -27 37
c-15 21 -62 83 -104 139 -75 98 -138 203 -153 251 -9 31 28 72 66 72 22 0 30
-7 42 -37z m135 -83 c56 -108 128 -216 236 -354 48 -61 85 -115 83 -120 -12
-39 -143 -67 -454 -96 -240 -23 -251 -23 -238 -12 21 17 85 32 200 47 161 20
279 43 326 62 35 13 39 19 39 50 0 26 -12 48 -52 96 -122 146 -237 367 -213
407 13 22 31 3 73 -80z m-838 -48 c0 -24 -8 -32 -26 -25 -10 4 -11 10 -3 24
12 24 29 25 29 1z m-795 -382 c55 -55 123 -116 151 -135 53 -36 80 -71 46 -61
-68 19 -313 77 -557 131 -66 14 -165 37 -219 51 -54 13 -119 24 -144 24 -40 0
-50 -5 -84 -40 -31 -33 -38 -37 -38 -21 0 22 38 56 90 78 21 9 90 19 170 24
104 7 332 30 475 48 6 0 55 -44 110 -99z m2067 -42 c40 -50 62 -87 54 -95 -5
-5 -97 -13 -321 -28 -148 -9 -65 11 104 25 102 9 155 18 158 26 2 7 -7 32 -21
57 -14 24 -26 47 -26 50 0 17 21 3 52 -35z m-2552 -22 c91 -21 201 -46 245
-56 44 -10 161 -37 260 -59 247 -56 240 -53 311 -121 54 -53 68 -61 91 -56 16
3 45 8 66 12 l37 6 0 -67 c0 -36 5 -75 11 -86 21 -39 7 -46 -73 -37 -201 25
-511 73 -658 103 -209 43 -504 113 -534 127 -24 11 -34 25 -61 92 -32 80 -10
164 48 185 23 9 27 8 257 -43z m-324 -186 c16 -29 38 -59 50 -67 67 -43 715
-180 1059 -222 50 -7 109 -14 132 -17 50 -6 64 -21 28 -30 -84 -21 -815 114
-1138 211 -137 41 -178 91 -176 212 l1 68 8 -51 c4 -29 20 -75 36 -104z m1144
70 c84 -80 103 -92 136 -87 20 4 32 2 29 -4 -4 -5 -23 -9 -44 -9 -33 0 -47 9
-124 83 -48 46 -87 87 -87 92 0 7 28 -16 90 -75z m1290 -5 c-47 -8 -109 -18
-138 -23 -72 -12 -76 3 -4 16 31 7 66 13 77 16 11 2 49 4 85 4 l65 0 -85 -13z
m-603 -41 c-3 -4 -64 -10 -134 -15 -70 -5 -150 -11 -177 -15 -34 -4 -47 -3
-42 5 4 6 31 11 59 12 29 0 72 4 97 8 54 10 206 13 197 5z m1062 -35 c7 -24 9
-45 4 -50 -5 -5 -99 -22 -208 -38 -110 -16 -339 -50 -510 -76 -527 -78 -716
-105 -746 -105 -21 0 -32 7 -44 30 -18 36 -20 143 -2 158 15 13 216 30 424 36
117 4 184 1 245 -9 113 -20 139 -19 177 9 71 52 249 82 507 85 l141 1 12 -41z
m-1459 1 c-8 -5 -24 -9 -35 -9 l-20 0 20 9 c11 5 27 9 35 9 13 1 13 0 0 -9z
m-1766 -140 c7 -7 -6 -10 -36 -10 -26 0 -58 -4 -72 -10 -56 -21 -85 -120 -59
-200 16 -49 39 -73 93 -97 19 -9 30 -18 23 -20 -15 -5 -71 23 -101 51 -53 48
-69 153 -34 221 9 19 33 46 52 60 29 21 43 24 80 20 24 -3 49 -10 54 -15z
m129 -44 c51 -19 116 -40 145 -47 29 -7 48 -17 44 -21 -5 -5 -49 5 -98 20 -49
16 -110 35 -136 42 -26 7 -53 19 -59 26 -18 22 1 18 104 -20z m-65 -27 c31
-11 71 -25 87 -29 17 -5 143 -47 280 -95 138 -47 288 -99 335 -115 119 -41
208 -74 215 -82 4 -3 0 -19 -8 -35 -21 -42 -28 -94 -17 -132 5 -19 8 -36 6
-39 -2 -2 -28 3 -58 12 -29 9 -125 37 -213 62 -355 102 -749 243 -788 283 -33
33 -30 106 6 154 34 45 67 48 155 16z m319 -65 c-6 -6 -47 9 -47 17 0 5 11 3
25 -3 14 -6 24 -13 22 -14z m70 -20 c-3 -3 -12 -4 -19 -1 -8 3 -5 6 6 6 11 1
17 -2 13 -5z m70 -20 c-3 -3 -12 -4 -19 -1 -8 3 -5 6 6 6 11 1 17 -2 13 -5z
m2409 -49 c-36 -54 -37 -72 -9 -105 14 -17 23 -33 20 -37 -3 -3 -36 -9 -74
-13 -148 -17 -422 -51 -493 -60 -163 -22 -1196 -146 -1302 -156 -79 -8 -83 -3
-83 83 0 44 5 57 27 80 23 22 40 28 100 34 40 4 195 21 343 38 149 17 479 53
735 81 430 46 612 67 650 75 8 1 35 3 59 4 l43 1 -16 -25z m-2256 -4 c0 -5 -9
-7 -20 -4 -11 3 -20 7 -20 9 0 2 9 4 20 4 11 0 20 -4 20 -9z m37 -17 c-3 -3
-12 -4 -19 -1 -8 3 -5 6 6 6 11 1 17 -2 13 -5z m200 -70 c-3 -3 -12 -4 -19 -1
-8 3 -5 6 6 6 11 1 17 -2 13 -5z m87 -29 c25 -19 9 -19 -24 0 -14 8 -19 14
-10 14 8 0 24 -6 34 -14z m2319 -80 c-5 -59 -2 -79 11 -99 9 -14 16 -28 16
-30 0 -6 -102 -54 -195 -93 -33 -13 -98 -43 -145 -65 -99 -47 -189 -87 -355
-159 -66 -28 -157 -69 -203 -90 -45 -21 -94 -42 -107 -45 -73 -18 -134 112
-91 194 25 49 39 56 306 162 58 23 182 73 275 110 94 38 199 74 235 81 42 7
74 20 91 35 23 22 128 71 156 73 8 1 10 -20 6 -74z m-3238 50 c40 -18 16 -19
-26 0 -19 8 -27 14 -19 14 8 0 29 -6 45 -14z m180 -65 c3 -6 -1 -7 -9 -4 -18
7 -21 14 -7 14 6 0 13 -4 16 -10z m42 -16 c-3 -3 -12 -4 -19 -1 -8 3 -5 6 6 6
11 1 17 -2 13 -5z m111 -80 c65 -20 200 -69 302 -108 l185 -71 125 1 c71 1
166 9 220 18 52 10 127 18 165 18 121 1 779 -82 797 -100 5 -5 4 -21 -2 -36
-15 -42 -12 -96 10 -145 11 -23 18 -46 16 -50 -12 -19 -876 70 -1156 119 -30
5 -131 21 -225 35 -304 45 -559 84 -599 92 -49 10 -77 46 -83 104 -6 60 21
108 77 137 24 12 46 22 48 22 2 0 56 -16 120 -36z m39 30 c-3 -3 -12 -4 -19
-1 -8 3 -5 6 6 6 11 1 17 -2 13 -5z m89 -29 c17 -13 16 -14 -16 -3 -43 14 -49
18 -24 18 11 0 29 -7 40 -15z m-412 -32 c-32 -47 -34 -49 -34 -32 0 13 45 69
55 69 2 0 -7 -17 -21 -37z m794 -102 c9 -6 12 -11 6 -11 -21 0 -114 33 -114
41 0 8 80 -14 108 -30z m35 -258 c-7 -2 -19 -2 -25 0 -7 3 -2 5 12 5 14 0 19
-2 13 -5z m535 -70 c-10 -2 -26 -2 -35 0 -10 3 -2 5 17 5 19 0 27 -2 18 -5z
m390 -50 c-10 -2 -26 -2 -35 0 -10 3 -2 5 17 5 19 0 27 -2 18 -5z m165 -20
c-7 -2 -19 -2 -25 0 -7 3 -2 5 12 5 14 0 19 -2 13 -5z"/>
<path d="M5368 4428 l-53 -122 -70 -48 c-73 -50 -88 -79 -53 -102 14 -8 32 -1
94 43 l77 54 106 4 c127 5 151 9 151 27 0 30 -28 38 -119 35 -49 -2 -93 -1
-97 3 -4 5 10 46 31 93 36 81 37 86 21 110 -9 14 -20 25 -25 25 -5 0 -33 -55
-63 -122z"/>
<path d="M691 4346 c-35 -52 -61 -102 -59 -112 1 -9 26 -33 54 -53 28 -20 102
-73 163 -118 62 -45 118 -80 124 -77 15 6 127 179 127 197 0 14 -20 37 -32 37
-5 0 -29 -31 -54 -70 -25 -38 -51 -70 -58 -70 -18 0 -96 57 -103 76 -3 8 7 30
22 49 30 40 31 80 2 80 -10 0 -31 -18 -46 -40 -15 -22 -33 -41 -41 -42 -8 -2
-30 10 -49 26 l-34 28 48 74 c35 55 45 77 38 89 -22 33 -40 20 -102 -74z"/>
<path d="M533 4068 c-52 -57 -69 -151 -40 -221 34 -81 125 -144 221 -154 72
-7 117 14 151 70 46 79 47 172 2 165 -19 -3 -22 -8 -19 -43 6 -73 -65 -131
-143 -118 -47 8 -123 58 -152 102 -32 47 -29 89 8 141 23 32 29 48 22 59 -15
23 -28 23 -50 -1z"/>
<path d="M5673 3915 c-40 -17 -59 -54 -68 -132 -8 -72 -35 -116 -68 -111 -29
4 -67 64 -67 105 0 33 -2 34 -32 31 -32 -3 -33 -5 -31 -45 4 -86 69 -163 138
-163 43 0 94 35 111 75 8 19 14 57 14 85 0 41 5 56 25 75 13 14 29 25 35 25
20 0 60 -49 60 -74 0 -37 10 -56 31 -56 66 0 19 164 -55 190 -38 13 -54 12
-93 -5z"/>
<path d="M2720 3790 c72 -21 320 -51 320 -38 0 4 -15 8 -32 8 -28 0 -95 10
-318 45 -19 3 -6 -4 30 -15z"/>
<path d="M3088 3733 c12 -2 30 -2 40 0 9 3 -1 5 -23 4 -22 0 -30 -2 -17 -4z"/>
<path d="M2778 3718 c6 -6 18 -8 28 -6 14 3 12 5 -9 10 -19 3 -25 2 -19 -4z"/>
<path d="M3748 3713 c7 -3 16 -2 19 1 4 3 -2 6 -13 5 -11 0 -14 -3 -6 -6z"/>
<path d="M2838 3703 c7 -3 16 -2 19 1 4 3 -2 6 -13 5 -11 0 -14 -3 -6 -6z"/>
<path d="M3604 3644 c-11 -16 -14 -28 -7 -35 6 -6 13 3 20 26 13 42 9 44 -13
9z"/>
<path d="M5864 3605 c-4 -9 -2 -37 3 -62 13 -57 4 -66 -79 -82 -35 -7 -107
-21 -160 -33 -86 -19 -98 -24 -98 -42 1 -49 10 -51 127 -27 59 12 134 28 166
36 69 16 81 9 91 -56 10 -64 31 -83 59 -55 15 15 16 9 -47 281 -9 40 -16 51
-34 53 -14 2 -25 -3 -28 -13z"/>
<path d="M3666 3571 c-10 -11 -16 -26 -14 -33 3 -8 11 -2 23 15 21 33 15 45
-9 18z"/>
<path d="M2948 3573 c7 -3 16 -2 19 1 4 3 -2 6 -13 5 -11 0 -14 -3 -6 -6z"/>
<path d="M3707 3513 c-10 -10 -8 -45 2 -39 11 7 21 46 12 46 -4 0 -11 -3 -14
-7z"/>
<path d="M3860 3492 c0 -5 14 -7 30 -4 17 2 30 6 30 8 0 2 -13 4 -30 4 -16 0
-30 -4 -30 -8z"/>
<path d="M3046 3481 c-6 -8 22 -36 64 -64 46 -31 45 -17 -2 28 -50 48 -54 50
-62 36z"/>
<path d="M3761 3441 c-7 -5 -11 -17 -9 -27 4 -17 5 -17 17 4 14 27 12 35 -8
23z"/>
<path d="M535 3394 c-66 -7 -151 -17 -190 -21 -54 -6 -70 -12 -73 -25 -2 -12
50 -57 179 -152 101 -75 186 -133 190 -128 4 4 10 17 14 30 5 18 -1 30 -30 57
-36 32 -37 36 -30 81 12 80 20 94 57 94 44 0 55 9 59 45 4 27 1 30 -26 31 -16
1 -84 -4 -150 -12z m20 -111 c-8 -45 -12 -53 -28 -53 -14 0 -107 62 -107 72 0
10 29 16 89 17 l53 1 -7 -37z"/>
<path d="M3815 3380 c-3 -6 1 -7 9 -4 18 7 21 14 7 14 -6 0 -13 -4 -16 -10z"/>
<path d="M3416 3361 c-3 -5 1 -11 9 -15 15 -6 29 7 18 18 -9 9 -21 8 -27 -3z"/>
<path d="M3112 3285 c4 -4 56 -9 115 -11 126 -5 277 -28 348 -55 58 -22 55
-21 55 -11 0 9 -46 30 -125 58 -38 13 -92 19 -225 22 -96 2 -172 1 -168 -3z"/>
<path d="M3650 3196 c0 -2 7 -7 16 -10 8 -3 12 -2 9 4 -6 10 -25 14 -25 6z"/>
<path d="M5755 3151 c-140 -9 -165 -32 -165 -151 0 -96 27 -143 93 -161 44
-12 325 -4 339 9 3 4 4 20 1 35 l-5 28 -160 -2 c-151 -1 -161 0 -183 21 -32
30 -39 64 -20 101 21 40 49 49 158 50 51 0 115 4 142 7 47 7 50 9 50 37 l0 30
-80 1 c-44 0 -120 -2 -170 -5z"/>
<path d="M224 3036 c-3 -8 -4 -23 -2 -33 3 -15 26 -22 143 -40 77 -12 170 -25
208 -29 l67 -7 0 31 c0 17 -4 33 -9 36 -12 8 -336 56 -373 56 -16 0 -31 -6
-34 -14z"/>
<path d="M312 2834 c-24 -9 -53 -30 -68 -49 -23 -31 -25 -39 -22 -141 l3 -109
204 -3 203 -2 -4 88 c-5 111 -34 169 -102 201 -58 29 -158 36 -214 15z m183
-83 c48 -22 60 -35 73 -82 16 -61 4 -69 -96 -68 -48 1 -114 4 -147 8 -57 6
-60 8 -63 35 -5 41 17 86 52 107 40 25 127 25 181 0z"/>
<path d="M5606 2721 c-14 -23 -18 -147 -6 -191 45 -164 325 -205 391 -56 10
23 21 76 25 118 8 91 33 77 -201 108 -88 12 -170 23 -181 26 -12 3 -25 1 -28
-5z m226 -97 c62 -8 117 -19 122 -24 14 -14 -3 -77 -28 -106 -40 -47 -166 -43
-231 8 -34 27 -57 80 -49 113 8 31 26 32 186 9z"/>
<path d="M540 2425 c-293 -46 -305 -49 -308 -78 -5 -38 12 -41 126 -23 115 18
122 19 122 7 0 -4 -45 -57 -100 -116 -97 -105 -119 -145 -82 -145 14 0 225 33
360 56 30 5 33 8 30 37 -3 37 1 36 -128 17 -151 -22 -151 -22 -22 113 103 106
124 137 96 143 -5 1 -47 -4 -94 -11z"/>
<path d="M5544 2315 c-3 -14 -4 -31 -1 -38 4 -11 353 -108 388 -107 18 0 35
48 22 61 -4 4 -78 26 -163 48 -85 22 -171 45 -190 51 -48 14 -49 13 -56 -15z"/>
<path d="M5511 2151 c-15 -26 -71 -199 -71 -216 0 -8 8 -19 19 -24 21 -12 30
1 57 89 9 30 20 59 24 64 12 12 69 0 107 -24 l32 -19 -16 -56 c-12 -40 -13
-59 -5 -67 19 -19 39 -1 53 47 8 26 19 50 26 52 18 7 84 -17 90 -33 2 -7 -5
-47 -18 -89 -21 -71 -21 -77 -6 -93 11 -10 20 -13 26 -7 17 17 83 237 74 245
-4 4 -62 28 -128 53 -66 25 -150 57 -187 71 -64 24 -68 25 -77 7z"/>
<path d="M580 1983 c-63 -19 -140 -42 -170 -50 -71 -19 -84 -31 -71 -66 11
-29 18 -32 53 -18 13 5 57 19 98 31 41 12 93 28 115 35 22 7 60 18 85 25 58
17 64 23 56 54 -8 34 -24 33 -166 -11z"/>
<path d="M5387 1818 c-37 -50 -49 -98 -38 -148 14 -61 48 -92 108 -97 44 -4
53 -1 102 36 67 52 104 54 139 9 15 -19 5 -46 -30 -85 -26 -28 -16 -66 15 -61
33 5 67 73 67 134 0 62 -23 97 -76 114 -44 15 -79 7 -126 -31 -55 -43 -84 -52
-117 -34 -50 25 -48 69 6 126 22 24 23 29 11 48 -18 29 -33 26 -61 -11z"/>
<path d="M612 1544 c-7 -13 -13 -14 -29 -5 -16 8 -24 7 -37 -8 -15 -16 -15
-22 -4 -40 11 -18 10 -22 -6 -34 -13 -10 -16 -20 -11 -36 6 -19 12 -22 35 -18
22 5 29 2 33 -13 8 -29 45 -26 57 5 6 15 17 25 30 25 29 0 28 46 -1 53 -18 5
-21 11 -16 35 9 44 -31 72 -51 36z"/>
<path d="M2128 1472 l-767 -2 -3 -343 c-2 -188 -2 -406 0 -485 l3 -142 1767 2
1767 3 1 175 c0 96 -1 183 -3 193 -4 14 -16 17 -69 17 -36 0 -64 -4 -64 -10 0
-5 -9 -10 -20 -10 -23 0 -55 -44 -46 -65 3 -8 1 -15 -4 -15 -6 0 -10 9 -10 21
0 15 -5 19 -15 15 -8 -3 -14 0 -12 7 1 7 -4 11 -10 9 -15 -2 -16 2 -4 26 16
29 32 102 26 112 -4 6 -4 18 -1 28 5 15 17 18 89 16 106 -3 104 -3 88 -13 -9
-6 -4 -10 18 -13 26 -4 31 -1 31 16 0 12 5 112 10 224 7 141 7 209 0 223 -12
21 86 21 -2772 11z m-348 -348 c0 -8 5 -14 10 -14 6 0 10 5 10 10 0 6 27 10
60 10 36 0 60 -4 60 -11 0 -13 62 -2 71 13 3 5 9 3 12 -6 4 -9 13 -13 22 -10
8 3 15 1 15 -5 0 -6 7 -8 17 -4 12 5 14 3 8 -8 -7 -11 -6 -12 6 -2 16 13 91
12 122 -2 17 -7 16 -10 -11 -39 -16 -17 -39 -48 -51 -68 -13 -21 -27 -38 -32
-38 -5 0 -9 -6 -9 -14 0 -20 -67 -29 -165 -21 -44 4 -86 6 -92 6 -7 -1 -19 -1
-25 -2 -7 0 -29 0 -48 1 -19 1 -55 -2 -80 -7 -51 -11 -70 -7 -70 12 0 18 47
87 66 98 8 4 14 18 14 30 0 28 18 47 42 47 12 0 18 8 18 25 0 18 4 23 15 19 8
-4 15 -12 15 -20z m138 19 c-10 -2 -26 -2 -35 0 -10 3 -2 5 17 5 19 0 27 -2
18 -5z m-440 -22 c9 -5 25 -12 35 -15 25 -8 21 -19 -18 -57 -19 -19 -35 -38
-35 -44 0 -5 -14 -26 -30 -45 -23 -28 -31 -33 -41 -22 -11 10 -10 12 4 12 20
0 22 11 5 28 -7 7 -9 12 -5 12 4 0 3 9 -3 19 -7 13 -7 22 0 26 5 3 10 15 10
25 0 18 38 69 53 70 4 0 15 -4 25 -9z m1076 -34 c3 4 6 -6 6 -20 0 -25 3 -27
40 -27 25 0 40 5 40 13 1 7 6 5 14 -5 7 -10 26 -18 42 -18 35 0 22 -15 -26
-28 -19 -5 -34 -14 -32 -21 1 -6 -8 -11 -21 -11 -30 0 -40 -10 -26 -27 9 -9 8
-13 0 -13 -6 0 -11 5 -11 10 0 6 -12 10 -26 10 -17 0 -23 4 -18 12 5 7 2 9 -8
5 -9 -3 -19 -3 -23 1 -13 13 -98 13 -107 0 -5 -8 -6 -1 -2 17 6 27 5 28 -7 13
-10 -13 -18 -15 -29 -8 -13 8 -13 10 2 10 12 0 15 6 12 24 -3 17 3 28 21 40
27 18 49 21 40 6 -10 -17 16 -11 42 9 18 15 30 18 48 11 12 -5 26 -6 29 -3z
m40 -29 c-3 -4 -9 -8 -15 -8 -5 0 -9 4 -9 8 0 5 7 9 15 9 8 0 12 -4 9 -9z
m1725 -47 c13 -17 32 -31 42 -31 10 0 21 -5 24 -10 4 -6 10 -8 15 -5 5 3 21 0
37 -7 15 -6 32 -12 38 -12 22 -2 14 -33 -12 -47 -15 -8 -34 -20 -41 -26 -18
-17 -133 -18 -129 -1 1 7 -11 12 -28 13 -16 1 -40 5 -53 9 -15 5 -24 3 -28 -8
-7 -18 -62 -48 -74 -41 -5 3 -10 -5 -12 -17 -2 -18 -9 -23 -35 -23 -17 0 -35
-3 -39 -7 -10 -11 -16 -10 -39 8 -13 10 -16 17 -9 22 6 4 14 20 18 36 6 26 6
27 -9 13 -14 -15 -17 -15 -35 3 -11 11 -27 21 -35 21 -24 2 -29 4 -42 12 -16
10 -36 -1 -28 -14 4 -5 0 -9 -9 -9 -8 0 -16 6 -19 13 -3 8 -11 4 -22 -11 -9
-13 -23 -21 -31 -18 -8 3 -14 1 -14 -5 0 -6 -13 4 -30 22 -22 24 -26 35 -17
41 9 6 8 10 -3 18 -13 8 -12 10 3 10 9 0 17 5 17 10 0 6 6 10 14 8 8 -2 28 11
45 29 26 27 32 30 39 16 8 -13 13 -13 32 -3 14 7 50 11 96 8 40 -2 68 0 62 3
-6 4 20 8 58 8 38 1 98 5 134 9 74 9 87 5 119 -37z m291 -169 c0 -4 -10 -13
-22 -21 -23 -14 -23 -14 -4 8 20 22 26 25 26 13z"/>
<path d="M1425 1000 c-3 -5 -1 -10 4 -10 6 0 11 5 11 10 0 6 -2 10 -4 10 -3 0
-8 -4 -11 -10z"/>
<path d="M5361 1241 c-9 -6 -11 -18 -7 -35 4 -15 2 -27 -4 -27 -5 -1 -15 -2
-21 -3 -7 0 -17 -9 -23 -19 -9 -15 -7 -22 10 -36 12 -9 25 -27 28 -39 7 -20
46 -32 46 -14 0 4 4 14 10 22 7 12 12 11 30 -5 19 -18 22 -18 38 -2 14 14 15
21 4 37 -7 11 -10 31 -6 45 8 34 -12 58 -36 45 -26 -14 -28 -13 -32 12 -3 25
-17 32 -37 19z"/>
<path d="M0 80 l0 -80 3145 0 3145 0 0 80 0 80 -3145 0 -3145 0 0 -80z"/>
</g>
</svg>
