<svg width="640" height="589" viewBox="0 0 640 589" fill="none" xmlns="http://www.w3.org/2000/svg">
<g clip-path="url(#clip0_94_2)">
<path d="M328.046 589C499.94 589 639.289 457.148 639.289 294.5C639.289 131.852 499.94 0 328.046 0C156.151 0 16.8027 131.852 16.8027 294.5C16.8027 457.148 156.151 589 328.046 589Z" fill="#C4E1FD"/>
<path d="M329.303 575.933C493.876 575.933 627.288 449.697 627.288 293.977C627.288 138.257 493.876 12.0215 329.303 12.0215C164.731 12.0215 31.3184 138.257 31.3184 293.977C31.3184 449.697 164.731 575.933 329.303 575.933Z" fill="#BDDFFF"/>
<mask id="mask0_94_2" style="mask-type:alpha" maskUnits="userSpaceOnUse" x="40" y="26" width="576" height="536">
<path d="M615.803 301.198C615.803 453.186 467.755 562 328.303 562C188.851 562 40.3027 453.186 40.3027 301.198C40.3027 149.21 188.851 26 328.303 26C467.755 26 615.803 149.21 615.803 301.198Z" fill="#55AAF8"/>
</mask>
<g mask="url(#mask0_94_2)">
<path d="M615.803 301.198C615.803 453.186 467.755 562 328.303 562C188.851 562 40.3027 453.186 40.3027 301.198C40.3027 149.21 188.851 26 328.303 26C467.755 26 615.803 149.21 615.803 301.198Z" fill="#55AAF8"/>
<path d="M625.803 329.524C625.803 478.475 480.713 585.115 344.048 585.115C207.382 585.115 61.8027 478.475 61.8027 329.524C61.8027 180.574 207.382 59.8252 344.048 59.8252C480.713 59.8252 625.803 180.574 625.803 329.524Z" fill="black" fill-opacity="0.05"/>
<path d="M279.465 463.964L279.736 463.429C286.775 449.544 302.553 442.458 317.607 446.419L336.333 451.347C340.295 452.39 344.104 453.946 347.662 455.976L379.463 474.118C387.472 478.687 396.747 480.534 405.895 479.379C436.442 475.526 460.857 504.364 452.016 533.857L430.843 604.487C430.15 606.798 429.28 609.053 428.241 611.231L405.684 658.505C393.841 683.326 362.828 692.007 339.82 676.941C330.773 671.016 324.137 662.057 321.106 651.676L308.847 609.687C305.902 599.598 299.661 590.788 291.12 584.664L261.367 563.327C250.906 555.826 247.308 541.916 252.818 530.282L254.865 525.962C257.616 520.154 257.105 513.327 253.521 507.993C247.886 499.607 250.147 488.237 258.562 482.646L269.053 475.675C273.477 472.735 277.064 468.701 279.465 463.964Z" fill="#387D6C"/>
<path d="M444.399 171.307L489.69 100.412C491.427 97.6932 492.88 94.8025 494.025 91.7858L495.295 88.4396C502.222 70.1862 519.713 58.1162 539.236 58.1162H558.451C570.252 58.1162 581.62 62.5552 590.299 70.5514L631.617 108.622C636.679 113.286 640.655 119.004 643.263 125.374L669.596 189.669C676.445 206.395 673.098 225.566 660.985 238.981L621.303 282.926L639.303 320.579C650.136 342.912 671.803 390.015 671.803 399.761V538.744C671.803 552.047 652.826 549.537 636.244 544.335C626.368 541.237 618.599 533.828 613.613 524.759L578.62 461.12C572.37 449.754 557.526 446.518 547.112 454.252C535.688 462.735 519.32 457.913 514.321 444.591L498.888 403.465C495.274 393.837 500.285 383.12 509.99 379.719L514.698 378.069C523.439 375.006 527.046 364.598 522.074 356.783C518.652 351.404 519.18 344.414 523.372 339.611L566.803 289.848L558.35 292.098C549.491 294.456 540.803 287.778 540.803 278.61C540.803 270.902 534.554 264.653 526.846 264.653H508.508C498.311 264.653 488.712 259.837 482.617 251.661L464.392 227.213C459.616 220.807 452.096 217.034 444.106 217.034H438.46C427.603 217.034 418.803 208.233 418.803 197.377V191.61C418.803 183.939 425.022 177.72 432.693 177.72C437.434 177.72 441.847 175.302 444.399 171.307Z" fill="#387D6C"/>
<path d="M132.178 288.606L125.63 252.851C122.912 238.007 113.232 225.372 99.6081 218.883L60.3674 200.195C39.7927 190.396 29.2119 167.249 35.2645 145.278L37.2869 137.937C40.7999 125.185 49.5234 114.504 61.3165 108.515L102.962 87.3642C114.653 81.4267 128.293 80.643 140.587 85.2025L220.893 114.985C226.124 116.924 231.658 117.918 237.236 117.918H276.976C285.373 117.918 293.617 120.167 300.849 124.432L324.966 138.653C347.846 152.145 355.008 181.902 340.773 204.327L338.621 207.718C333.84 215.249 331.302 223.985 331.302 232.906V256.913C331.302 267.315 327.851 277.424 321.489 285.655L290.614 325.602C284.253 333.833 280.802 343.941 280.802 354.344V395.31C280.802 396.796 280.958 398.279 281.269 399.732C284.855 416.496 268.049 430.335 252.284 423.599L211.299 406.089C198.688 400.701 189.288 389.77 185.85 376.494L176.427 340.1C173.524 328.892 165.388 319.774 154.581 315.618C142.917 311.133 134.429 300.899 132.178 288.606Z" fill="#387D6C"/>
<g style="mix-blend-mode:overlay">
<path d="M144.34 279.353L138.941 249.87C136.699 237.631 128.718 227.212 117.484 221.862L85.127 206.452C68.1619 198.372 59.4374 179.286 64.4282 161.17L66.0958 155.117C68.9924 144.602 76.1855 135.795 85.9096 130.856L120.25 113.416C129.89 108.521 141.137 107.874 151.274 111.634L217.491 136.191C221.804 137.791 226.367 138.61 230.967 138.61H263.735C270.659 138.61 277.456 140.465 283.42 143.981L303.306 155.707C322.172 166.832 328.077 191.368 316.34 209.859L314.565 212.655C310.623 218.865 308.53 226.069 308.53 233.425V253.22C308.53 261.798 305.684 270.133 300.439 276.919L274.981 309.858C269.735 316.645 266.889 324.98 266.889 333.558V367.337C266.889 368.562 267.019 369.785 267.275 370.983C270.231 384.806 256.374 396.217 243.375 390.663L209.581 376.225C199.182 371.782 191.431 362.769 188.596 351.822L180.826 321.813C178.433 312.571 171.724 305.053 162.813 301.626C153.195 297.928 146.196 289.489 144.34 279.353Z" fill="white" fill-opacity="0.07"/>
</g>
<g style="mix-blend-mode:overlay">
<path d="M345.34 639.27L339.964 609.916C337.71 597.605 329.649 587.14 318.32 581.819L288.082 567.616C272.036 560.079 263.15 542.615 266.504 525.207L268.054 517.157C270.319 505.403 277.888 495.356 288.56 489.935L321.25 473.333C330.89 468.438 342.137 467.791 352.274 471.551L420.506 496.856C423.484 497.96 426.233 499.606 428.612 501.711C434.138 506.599 437.302 513.621 437.302 520.998V535.966V565.956C437.302 569.212 437.712 572.456 438.523 575.61L441.08 585.549C441.891 588.703 442.302 591.946 442.302 595.203V614.654C442.302 620.097 443.448 625.478 445.666 630.448L464.525 672.705C466.743 677.675 467.889 683.057 467.889 688.499V727.254C467.889 728.479 468.019 729.702 468.275 730.9C471.231 744.723 457.374 756.134 444.375 750.58L410.581 736.142C400.182 731.699 392.431 722.686 389.596 711.739L381.826 681.73C379.433 672.488 372.724 664.97 363.813 661.543C354.195 657.845 347.196 649.406 345.34 639.27Z" fill="white" fill-opacity="0.07"/>
</g>
<g style="mix-blend-mode:overlay">
<path d="M558.174 263.806L532.291 254.013C529.686 253.027 527.195 251.763 524.862 250.244L481.254 221.854C470.27 214.702 463.645 202.483 463.645 189.376V184.542C463.645 169.951 471.84 156.596 484.85 149.988L513.25 135.565C522.891 130.669 534.138 130.023 544.275 133.782L612.507 159.087C615.485 160.192 618.234 161.838 620.613 163.942C626.138 168.83 629.302 175.853 629.302 183.23V198.197V228.187C629.302 231.444 629.713 234.687 630.524 237.841L633.081 247.78C633.892 250.934 634.302 254.178 634.302 257.434V276.886C634.302 282.328 635.449 287.71 637.667 292.68L658.909 340.278C659.556 341.726 659.89 343.295 659.89 344.882C659.89 356.72 643.995 360.586 638.559 350.07L617.916 310.144C617.315 308.982 616.818 307.768 616.43 306.518L613.046 295.604C610.925 288.763 606.95 282.643 601.561 277.924L599.264 275.913C592.198 269.725 583.125 266.315 573.733 266.315H571.889C567.204 266.315 562.557 265.465 558.174 263.806Z" fill="white" fill-opacity="0.07"/>
</g>
</g>
<path d="M132.303 109C132.303 109 258.626 28.2318 341.303 34C448.803 41.5 517.303 109 517.303 109M95.3028 137C95.3028 137 75.1822 298.206 95.3028 336C132.303 405.5 269.303 381 269.303 381M303.303 392.5C303.303 392.5 278.291 228.013 341.303 175C390.913 133.263 535.803 130.5 535.803 130.5M541.303 305C541.303 305 365.803 160.233 184.302 183.5C89.548 195.647 -16.6968 326 4.80317 392.5C15.6837 426.154 81.303 439 81.303 439M309.303 381C309.303 381 535.802 78.9999 615.302 156C637.884 177.871 615.302 236.5 615.302 236.5" stroke="white" stroke-width="3" stroke-linecap="round" stroke-dasharray="1 12"/>
<path d="M292.379 461.041C312.052 461.041 328 445.093 328 425.42C328 405.747 312.052 389.799 292.379 389.799C272.706 389.799 256.758 405.747 256.758 425.42C256.758 445.093 272.706 461.041 292.379 461.041Z" fill="#29EB7F"/>
<path d="M279.865 425.979C279.865 425.979 274.551 430.139 274.062 422.693C274.062 422.693 269.308 426.189 266.931 422.448C264.414 418.498 267.315 416.785 267.84 416.331C267.874 416.296 267.874 416.226 267.805 416.226C266.966 416.261 264.728 416.051 264.274 412.556C263.785 409.06 266.896 408.396 266.896 408.396C266.896 408.396 258.891 406.298 262.736 399.062C265.532 393.784 271.825 397.419 271.825 397.419C271.825 397.419 271.72 392.141 275.565 391.267C281.403 389.938 283.011 395.916 283.011 395.916C283.011 395.916 281.717 387.212 290.526 387.002C296.434 386.862 295.316 393.819 295.316 393.819C295.316 393.819 304.404 389.134 307.76 395.951C310.382 401.299 303.985 404.236 303.985 404.236C303.985 404.236 314.752 405.739 313.109 415.107C312.235 420.071 307.935 416.96 307.935 416.96C307.935 416.96 309.648 419.197 307.935 421.504C306.537 423.392 304.23 422.553 304.23 422.553C304.23 422.553 305.348 430.418 296.224 425.839C287.101 421.26 294.162 418.533 294.162 418.533L292.554 413.22L288.709 410.074L284.339 409.969L282.801 412.905L276.439 413.08C276.439 413.08 275.845 417.03 276.264 418.219C276.928 420.316 279.865 425.979 279.865 425.979Z" fill="black"/>
<path d="M240.923 417.52L239 424.371L247.355 425.944L247.984 418.848L240.923 417.52Z" fill="#F8B706"/>
<path d="M283.746 432.585L297.903 431.921C299.337 432.27 305.629 434.193 306.468 435.102C311.082 440.171 314.123 443.317 314.123 443.317L306.887 447.127L303.776 445.274L306.747 456.775C301.364 457.055 297.099 460.481 293.149 459.747C285.738 458.348 280.565 451.602 278.852 447.686C278.328 446.498 278.852 441.394 278.852 441.394L273.434 441.149L271.301 432.026L283.746 432.585Z" fill="#0F9F4F"/>
<path d="M281.892 406.543C281.892 406.543 278.431 411.437 274.971 413.01C274.971 413.01 275.32 429.125 286.087 430.663C286.716 430.768 286.821 431.852 286.821 431.852L283.745 432.586C282.102 433.879 282.556 435.347 283.535 436.151C285.213 437.55 289.722 440.661 289.722 440.661C289.722 440.661 299.196 433.949 297.623 431.817L292.764 431.397L292.134 429.999C294.057 429.265 295.071 426.888 295.735 425.629C295.735 425.629 293.428 423.987 294.127 422.204C294.756 420.561 296.994 419.862 296.994 419.862C296.994 419.862 301.328 420.456 300.524 415.877C299.895 412.241 297.063 412.171 296.189 415.807L295.49 415.632C295.77 412.311 295.525 411.332 295.595 409.34C295.595 409.34 294.721 411.926 292.239 409.654C289.478 407.137 291.261 405.704 291.261 405.704C291.261 405.704 287.8 410.283 281.892 406.543Z" fill="#835328"/>
<path d="M245.361 427.098C254.589 437.515 273.117 439.193 273.117 439.193L271.578 433.145C258.47 431.747 250.325 423.882 250.325 423.882C250.325 423.882 249.346 418.848 245.85 420.491C242.355 422.134 247.703 421.994 247.703 421.994L247.388 425.909L243.998 425.28L245.361 427.098Z" fill="#835328"/>
<path d="M275.215 452.651L289.932 448.631L295.63 466.424L280.459 471.353L275.215 452.651Z" fill="#85D7FF"/>
<path d="M307.271 446.953L312.2 444.366C312.2 444.366 324.609 462.614 294.477 463.592C294.302 463.592 294.127 463.592 293.987 463.592C291.435 463.802 289.653 463.383 289.128 463.103C288.919 462.998 288.744 462.963 288.988 462.719C289.233 462.474 292.344 463.173 293.148 462.719C293.148 462.719 289.478 462.404 288.254 461.81C288.08 461.705 288.115 461.39 288.359 461.39C290.142 461.6 293.603 461.32 292.869 461.355C289.723 461.46 287.94 460.831 287.695 460.551C287.59 460.411 287.73 460.202 287.8 460.202C290.806 460.202 292.904 459.817 292.904 459.817C290.492 460.062 288.15 459.433 287.52 459.118C287.241 458.978 287.345 458.699 287.52 458.699C290.736 458.699 293.113 458.384 293.113 458.384L292.659 456.636C292.659 456.636 294.302 457.265 294.582 458.454C294.617 458.559 294.791 458.524 294.896 458.524C315.87 458.034 307.271 446.953 307.271 446.953Z" fill="#835328"/>
<path d="M278.747 418.463C280.35 418.463 281.649 417.164 281.649 415.562C281.649 413.959 280.35 412.66 278.747 412.66C277.145 412.66 275.846 413.959 275.846 415.562C275.846 417.164 277.145 418.463 278.747 418.463Z" fill="white"/>
<path d="M286.543 418.079C288.145 418.079 289.444 416.78 289.444 415.178C289.444 413.575 288.145 412.276 286.543 412.276C284.94 412.276 283.641 413.575 283.641 415.178C283.641 416.78 284.94 418.079 286.543 418.079Z" fill="white"/>
<path d="M278.153 417.833C279.079 417.833 279.83 417.082 279.83 416.155C279.83 415.229 279.079 414.478 278.153 414.478C277.226 414.478 276.475 415.229 276.475 416.155C276.475 417.082 277.226 417.833 278.153 417.833Z" fill="#1D1E1C"/>
<path d="M285.877 417.52C286.804 417.52 287.555 416.769 287.555 415.842C287.555 414.915 286.804 414.164 285.877 414.164C284.95 414.164 284.199 414.915 284.199 415.842C284.199 416.769 284.95 417.52 285.877 417.52Z" fill="#1D1E1C"/>
<path d="M282.242 415.877C282.731 415.947 282.521 415.807 286.052 419.198C287.101 420.211 281.612 421.924 280.319 421.19C278.326 420.072 281.752 415.807 282.242 415.877Z" fill="#2E98D4"/>
<path d="M289.234 425.351C288.255 426.155 285.144 427.937 284.619 424.966C284.375 423.533 287.136 423.148 287.136 423.148C287.556 421.086 290.597 421.226 290.597 421.226C290.597 421.226 291.716 423.288 289.234 425.351Z" fill="#EE774D"/>
<path d="M289.723 411.471L293.987 414.303L296.469 414.897C299.546 411.261 300.315 415.806 300.315 415.806C298.776 415.456 303.95 416.68 304.929 416.89C304.929 416.89 307.795 416.4 305.978 413.778L294.826 410.877L289.723 411.471Z" fill="#F8B706"/>
<path d="M293.987 414.303C293.987 414.303 294.477 414.199 294.721 413.534C294.861 413.045 294.302 412.835 294.302 412.835C294.302 412.835 295.071 412.905 295.106 412.486C295.141 412.031 294.512 411.822 294.512 411.822C294.512 411.822 295.211 411.822 295.316 411.402C295.421 410.983 294.861 410.843 294.861 410.843L289.723 411.437L293.987 414.303Z" fill="#FFD460"/>
<path d="M289.723 411.472L290.841 412.241L290.981 411.332L289.723 411.472Z" fill="black"/>
<path d="M294.268 412.869L297.694 413.778C297.694 413.778 299.057 413.149 299.756 414.337L306.363 416.085C306.363 416.085 306.748 415.771 306.608 415.211C306.468 414.652 294.513 411.855 294.513 411.855C294.513 411.855 295.142 412.31 295.107 412.52C295.037 412.729 294.268 412.869 294.268 412.869Z" fill="black"/>
<path d="M305.839 413.744L304.93 416.925C304.93 416.925 306.293 417.485 306.747 415.911C307.307 413.919 305.839 413.744 305.839 413.744Z" fill="#EE774D"/>
<path d="M97.3356 218.124C117.253 218.124 133.398 201.979 133.398 182.062C133.398 162.146 117.253 146 97.3356 146C77.419 146 61.2734 162.146 61.2734 182.062C61.2734 201.979 77.419 218.124 97.3356 218.124Z" fill="#85D7FF"/>
<path d="M146.772 155.454C146.422 154.859 154.755 156.049 154.755 156.049L155.77 164.312C157.766 165.187 146.072 165.152 146.072 165.152C146.072 165.152 147.857 157.169 146.772 155.454Z" fill="#13CE66"/>
<path d="M95.8657 178.036C95.8657 178.036 85.9223 179.332 83.6465 180.802C81.3708 182.238 77.0293 188.4 77.0293 188.4C77.0293 188.4 81.1607 192.671 86.0623 193.302L86.1324 197.503C86.1324 197.503 86.9026 211.753 99.6819 211.788C102.098 211.788 112.706 190.326 112.741 188.19C112.741 188.085 112.811 188.015 112.881 187.98C114.177 187.49 123.735 183.848 123.665 183.078C123.56 182.063 119.324 181.012 120.199 174.5C120.199 174.5 121.704 173.52 108.295 176.321C105.214 176.986 95.8657 178.036 95.8657 178.036Z" fill="#009EEB"/>
<path d="M94.8507 190.851L92.785 197.853L98.1768 199.008V199.499L94.4655 199.008L94.0454 200.024C92.5399 199.463 89.5989 201.739 93.2051 203.245L92.6799 204.89L99.5773 206.151L100.242 204.26C102.483 204.575 103.918 202.86 101.572 201.354L101.923 200.024L99.1221 199.534L99.3672 199.253L104.093 199.849L106.334 194.247L94.8507 190.851Z" fill="#1FB6FF"/>
<path d="M98.1059 205.941L96.4604 210.422L95.375 210.212L96.9855 205.731L95.1299 205.381C95.1299 205.381 93.4143 209.127 93.2393 209.442C93.0642 209.757 92.5391 209.092 92.5391 209.092L93.9745 205.17L96.6354 204.12L98.1059 205.941Z" fill="#1FB6FF"/>
<path d="M96.5297 166.308L93.7637 162.596C93.7637 162.596 95.8294 151.007 97.7551 151.287C99.6807 151.568 99.1206 151.287 99.1206 151.287C99.1206 151.287 101.186 146.736 105.142 146.456C109.099 146.176 115.716 147.646 118.482 154.334C119.637 157.169 117.922 155.174 117.922 155.174C117.922 155.174 119.777 161.861 117.572 165.992C117.011 167.043 117.922 155.174 106.683 156.014C101.536 156.329 96.5297 166.308 96.5297 166.308Z" fill="black"/>
<path d="M95.7255 164.381C95.7255 164.381 93.6598 157.624 90.0536 159.549C86.9375 161.23 89.7735 167.147 92.6444 167.357C93.2396 167.392 93.7648 168.022 93.7298 168.582C93.4847 171.558 96.3907 176.46 97.6511 177.58L95.2703 179.121C95.2703 179.121 99.7518 186.088 102.903 182.062C103.393 181.467 104.093 179.016 104.093 179.016C104.093 179.016 114.212 180.802 117.258 170.438C117.258 170.438 119.744 171.944 121.249 166.972C122.404 163.226 121.074 161.825 117.223 164.451C117.223 164.451 116.557 160.705 117.118 154.543C117.118 154.543 113.511 153.247 112.286 153.422C106.684 154.333 100.557 152.582 100.557 152.582C100.207 158.394 96.1456 164.766 95.7255 164.381Z" fill="#B77E49"/>
<path d="M120.023 176.25C120.023 176.25 120.163 181.012 122.719 182.097C125.275 183.183 146.387 166.307 146.387 166.307C146.387 166.307 149.083 165.222 149.293 164.066C149.748 161.475 150.729 160.53 151.219 158.849C151.744 157.134 149.713 157.799 149.433 158.149C148.978 158.709 148.873 159.935 147.648 160.495C146.422 161.055 147.508 155.523 147.508 155.523C144.042 154.543 144.987 162.176 142.956 162.981C137.284 165.222 120.023 176.25 120.023 176.25Z" fill="#B77E49"/>
<path d="M80.0761 190.85L86.0631 193.265C86.0631 193.265 84.3474 208.741 101.188 211.577C104.339 212.102 110.536 210.596 111.902 212.837C112.777 214.273 109.941 213.397 109.941 213.397C109.941 213.397 112.987 216.653 111.657 218.929C110.886 220.225 110.431 214.938 108.821 215.323C108.821 215.323 112.392 219.629 109.591 220.68C109.031 220.89 108.261 216.268 107.175 216.198C107.175 216.198 109.591 221.45 107.455 221.03C105.845 220.715 106.37 217.073 105.67 217.704C105.145 218.194 107.175 221.555 104.549 221.555C103.674 221.555 103.429 216.933 101.958 216.898C97.1618 216.828 72.5836 210.876 80.0761 190.85Z" fill="#B77E49"/>
<path d="M79.2698 218.58L85.3618 211.052L75.0684 210.422L79.2698 218.58Z" fill="white"/>
<path d="M50 194.247L82.596 193.722L78.6747 218.16L50 216.234V194.247Z" fill="white" stroke="#05A7F9" stroke-width="0.350118" stroke-miterlimit="10"/>
<path d="M67.8215 205.941C67.8215 206.116 67.8215 206.291 67.8215 206.466C67.7864 206.466 67.7864 206.501 67.7864 206.501C67.7864 206.571 67.7864 206.676 67.7514 206.746C67.6814 207.096 67.5764 207.412 67.4013 207.692C67.2263 207.972 67.0162 208.252 66.7361 208.462C66.491 208.637 66.2459 208.812 65.9658 208.917C65.7208 209.022 65.4407 209.092 65.1606 209.127C65.1606 209.127 65.1255 209.127 65.1255 209.162C65.0905 209.162 65.0555 209.162 65.0205 209.162C64.9155 209.162 64.8104 209.162 64.6704 209.162C64.6354 209.162 64.6004 209.162 64.6004 209.162C64.5654 209.127 64.5303 209.127 64.4953 209.127C64.2152 209.092 63.9351 209.022 63.6551 208.882C63.2699 208.707 62.9548 208.462 62.6747 208.147C62.5347 207.972 62.3946 207.762 62.2896 207.552C62.1145 207.201 62.0095 206.816 61.9745 206.431C61.9745 206.431 61.9745 206.396 61.9395 206.396C61.9395 206.256 61.9395 206.116 61.9395 205.976C61.9745 205.976 61.9745 205.941 61.9745 205.941C61.9745 205.836 62.0095 205.731 62.0095 205.626C62.0795 205.311 62.1846 204.996 62.3596 204.716C62.5347 204.436 62.7097 204.19 62.9548 203.98C63.1999 203.77 63.445 203.595 63.7251 203.49C64.0052 203.35 64.3203 203.28 64.6354 203.28C64.6354 203.28 64.6704 203.28 64.6704 203.245C64.8104 203.245 64.9505 203.245 65.0905 203.245C65.0905 203.28 65.1255 203.28 65.1255 203.28C65.2306 203.28 65.3356 203.315 65.4757 203.315C65.7558 203.385 66.0709 203.49 66.316 203.63C66.526 203.735 66.7011 203.875 66.8761 204.05C67.0862 204.26 67.2963 204.506 67.4363 204.751C67.6114 205.066 67.7514 205.451 67.7864 205.801C67.8215 205.871 67.7864 205.906 67.8215 205.941ZM64.9155 203.49C63.41 203.49 62.1846 204.716 62.1846 206.151C62.1495 207.727 63.41 208.952 64.9155 208.952C66.421 208.952 67.6464 207.727 67.6464 206.221C67.6464 204.681 66.386 203.455 64.9155 203.49Z" fill="#D8D8D8"/>
<path d="M64.7037 203.279C64.7037 203.314 64.6686 203.314 64.6686 203.314C64.3535 203.349 64.0384 203.419 63.7583 203.524C63.4782 203.629 63.1981 203.804 62.9881 204.015C62.743 204.225 62.5329 204.47 62.3929 204.75C62.2178 205.03 62.1128 205.345 62.0428 205.66C62.0077 205.765 62.0077 205.87 62.0077 205.975C62.0077 205.975 62.0077 206.01 61.9727 206.01C61.9727 205.1 61.9727 204.225 61.9727 203.314C61.9727 203.279 61.9727 203.279 62.0077 203.279C62.883 203.279 63.7933 203.279 64.7037 203.279Z" fill="#FEFEFE"/>
<path d="M67.8208 205.94C67.7857 205.905 67.7858 205.87 67.7858 205.835C67.7507 205.45 67.6107 205.1 67.4356 204.785C67.2956 204.54 67.1205 204.295 66.8754 204.085C66.7004 203.91 66.5253 203.769 66.3153 203.664C66.0352 203.524 65.7551 203.419 65.475 203.349C65.3699 203.314 65.2649 203.314 65.1249 203.314C65.1249 203.314 65.0898 203.314 65.0898 203.279C66.0002 203.279 66.8754 203.279 67.7858 203.279C67.8208 203.279 67.8208 203.279 67.8208 203.314C67.8208 204.19 67.8208 205.065 67.8208 205.94Z" fill="#FEFEFE"/>
<path d="M61.9395 206.431C61.9745 206.431 61.9745 206.431 61.9395 206.431C61.9745 206.851 62.1145 207.236 62.2896 207.586C62.3946 207.796 62.5347 207.971 62.6747 208.181C62.9548 208.496 63.2699 208.741 63.6551 208.917C63.9351 209.057 64.2152 209.127 64.4953 209.162C64.5303 209.162 64.5654 209.162 64.6004 209.197C63.7251 209.197 62.8498 209.197 61.9745 209.197C61.9395 209.197 61.9395 209.197 61.9395 209.162C61.9395 208.216 61.9395 207.306 61.9395 206.431Z" fill="#FEFEFE"/>
<path d="M65.1602 209.162C65.1952 209.127 65.1602 209.127 65.1602 209.162C65.4753 209.127 65.7554 209.057 66.0004 208.952C66.2805 208.847 66.5256 208.672 66.7707 208.497C67.0508 208.287 67.2609 208.006 67.4359 207.726C67.611 207.411 67.716 207.096 67.786 206.781C67.786 206.711 67.8211 206.641 67.8211 206.536C67.8211 206.536 67.8211 206.501 67.8561 206.501C67.8561 207.376 67.8561 208.252 67.8561 209.127C67.8561 209.162 67.8561 209.162 67.8211 209.162C66.9107 209.162 66.0355 209.162 65.1602 209.162Z" fill="#FEFEFE"/>
<path d="M64.9152 203.49C66.4207 203.49 67.6462 204.715 67.6462 206.221C67.6462 207.726 66.4207 208.952 64.9152 208.952C63.4097 208.952 62.1493 207.726 62.1843 206.151C62.1843 204.715 63.3747 203.455 64.9152 203.49ZM63.7598 206.746C63.7598 207.026 63.7598 207.306 63.7598 207.586C63.7598 207.656 63.7599 207.691 63.8649 207.691C64.3901 207.656 64.7752 207.201 64.7752 206.676C64.7752 206.361 64.7752 206.046 64.7752 205.731C64.7752 205.486 64.7752 205.241 64.7752 205.03C64.7752 204.96 64.7402 204.96 64.7052 204.96C64.6702 204.96 64.6351 204.96 64.6351 204.96C64.18 205.03 63.7949 205.451 63.7598 205.906C63.7598 206.151 63.7598 206.431 63.7598 206.746ZM65.1253 205.941C65.1253 206.186 65.1253 206.396 65.1253 206.641C65.1253 206.746 65.1253 206.816 65.1253 206.921C65.1253 206.991 65.1253 206.991 65.1953 206.991C65.2303 206.991 65.2654 206.991 65.3004 206.991C65.8606 206.886 66.2107 206.361 66.1056 205.766C66.0356 205.346 65.6155 204.995 65.1953 204.96C65.1253 204.96 65.0903 204.96 65.0903 205.03C65.1253 205.311 65.1253 205.626 65.1253 205.941Z" fill="#FEFEFE"/>
<path d="M63.7598 206.747C63.7598 206.466 63.7598 206.186 63.7598 205.906C63.7598 205.451 64.1449 204.996 64.6351 204.961C64.6701 204.961 64.7051 204.961 64.7051 204.961C64.7751 204.961 64.7751 204.961 64.7751 205.031C64.7751 205.276 64.7751 205.521 64.7751 205.731C64.7751 206.046 64.7751 206.361 64.7751 206.677C64.7751 207.202 64.355 207.622 63.8648 207.692C63.7948 207.692 63.7598 207.692 63.7598 207.587C63.7598 207.307 63.7598 207.027 63.7598 206.747Z" fill="#4064AB"/>
<path d="M65.125 205.941C65.125 205.626 65.125 205.311 65.125 204.996C65.125 204.926 65.125 204.891 65.23 204.926C65.6852 204.961 66.0703 205.311 66.1403 205.731C66.2454 206.291 65.8953 206.816 65.3351 206.957C65.3001 206.957 65.265 206.957 65.23 206.957C65.16 206.957 65.16 206.957 65.16 206.887C65.16 206.781 65.16 206.711 65.16 206.606C65.125 206.396 65.125 206.151 65.125 205.941Z" fill="#61BDEB"/>
<path d="M108.47 164.591C108.19 164.767 108.4 164.977 106.65 169.318C106.125 170.578 109.206 171.979 109.906 170.964C110.956 169.353 108.75 164.416 108.47 164.591Z" fill="#009EEB"/>
<path d="M104.933 167.252C106.596 167.252 107.944 165.904 107.944 164.241C107.944 162.579 106.596 161.23 104.933 161.23C103.27 161.23 101.922 162.579 101.922 164.241C101.922 165.904 103.27 167.252 104.933 167.252Z" fill="white"/>
<path d="M112.95 168.233C114.613 168.233 115.961 166.885 115.961 165.222C115.961 163.559 114.613 162.211 112.95 162.211C111.287 162.211 109.939 163.559 109.939 165.222C109.939 166.885 111.287 168.233 112.95 168.233Z" fill="white"/>
<path d="M105.845 166.482C106.812 166.482 107.595 165.698 107.595 164.731C107.595 163.764 106.812 162.98 105.845 162.98C104.878 162.98 104.094 163.764 104.094 164.731C104.094 165.698 104.878 166.482 105.845 166.482Z" fill="#1D1D1B"/>
<path d="M113.792 167.568C114.758 167.568 115.542 166.784 115.542 165.817C115.542 164.85 114.758 164.066 113.792 164.066C112.825 164.066 112.041 164.85 112.041 165.817C112.041 166.784 112.825 167.568 113.792 167.568Z" fill="#1D1D1B"/>
<path d="M100.102 167.602C99.2268 168.162 99.2268 172.329 101.923 172.714C102.728 172.854 104.794 171.243 103.953 171.313C99.5771 171.734 100.942 167.042 100.102 167.602Z" fill="black"/>
<path d="M71.9531 171.454V175.375L83.437 173.415L71.9531 171.454Z" fill="white"/>
<path d="M75.0675 162.771L72.9668 166.483L83.4353 170.369L75.0675 162.771Z" fill="white"/>
<path d="M78.1504 160.355L81.7916 158.499L85.0827 168.547L78.1504 160.355Z" fill="white"/>
<path d="M538.013 194.603C554.036 194.603 567.025 181.614 567.025 165.591C567.025 149.567 554.036 136.578 538.013 136.578C521.989 136.578 509 149.567 509 165.591C509 181.614 521.989 194.603 538.013 194.603Z" fill="#FFD55F"/>
<path d="M538.803 167.765C538.803 167.765 522.306 166.833 518.435 169.94C514.565 173.048 512.898 178.557 512.475 183.02L523.888 183.387L523.407 186.015C523.407 186.015 533.803 202.682 554.539 189.546C555.951 188.67 555.979 179.348 555.16 178.472C555.16 178.472 563.24 176.212 563.324 173.472C563.409 170.477 556.742 162.482 556.742 162.482C556.742 162.482 553.719 165.929 551.516 166.748C548.324 167.963 538.803 167.765 538.803 167.765Z" fill="#F8B700"/>
<path d="M548.435 189.49H557.588C557.588 189.49 558.69 198.615 557.588 199.152C556.487 199.688 551.006 200.564 549.17 199.152C548.548 198.7 548.548 199.462 548.548 198.05C548.548 197.598 544.283 199.914 544.283 194.716C544.283 189.914 548.294 191.468 548.294 191.468C548.266 189.914 548.435 189.49 548.435 189.49Z" fill="#FFD55F"/>
<path d="M529.171 150.534L528.408 155.986C528.408 155.986 526.882 153.585 525.385 154.207C523.86 154.828 523.492 159.659 525.385 160.026C527.278 160.393 528.803 160.026 528.662 160.026C528.521 160.026 530.385 166.043 532.419 166.552C534.453 167.06 545.64 170.422 547.646 164.602C549.426 159.404 549.426 158.416 549.426 158.416C549.426 158.416 552.194 159.178 551.968 154.885C551.714 150.591 549.313 152.992 548.691 153.359C548.07 153.726 547.42 147.737 547.42 147.737H530.357L529.171 150.534Z" fill="#C4924D"/>
<path d="M513.859 182.852L523.859 183.162C523.859 183.162 523.351 191.411 538.916 191.129C538.916 191.129 544.764 189.999 546.007 190.084C546.572 190.112 548.295 191.44 548.295 191.44C548.295 191.44 545.866 190.705 545.16 192.005C544.227 193.756 548.013 192.344 548.013 192.344C548.013 192.344 549.058 195.79 547.872 196.468C542.363 199.547 539.99 196.976 539.99 196.976C539.99 196.976 515.413 204.632 513.859 182.852Z" fill="#C4924D"/>
<path d="M574.993 138.217C573.806 138.838 574.145 145.788 574.597 146.522C574.964 147.115 574.512 147.709 574.512 147.709C574.512 147.709 562.026 164.771 557.336 163.331L563.269 172.54C563.269 172.54 579.908 161.494 579.343 148.189C579.343 148.189 579.965 147.624 580.473 147.087C583.185 144.347 581.631 139.573 580.784 140.872C580.36 141.522 580.049 144.064 579.767 143.358C579.767 143.358 580.275 135.279 578.75 135.505L574.993 138.217Z" fill="#C4924D"/>
<path d="M535.102 166.636L531.146 169.687C531.146 169.687 540.469 173.5 542.729 170.986C544.989 168.472 541.43 166.636 541.43 166.636H535.102Z" fill="#C4924D"/>
<path d="M531.996 168.698C531.996 168.698 530.725 167.85 529.341 169.291C527.956 170.732 529.849 175.902 532.674 176.721C535.499 177.568 537.392 174.969 537.392 174.969C537.392 174.969 538.042 171.466 531.996 168.698Z" fill="#E95426"/>
<path d="M545.018 167.71C545.018 167.71 545.838 166.382 547.787 167.145C549.736 167.907 550.16 173.614 547.843 175.619C545.527 177.625 542.617 176.015 542.617 176.015C542.617 176.015 540.103 172.992 545.018 167.71Z" fill="#E95426"/>
<path d="M530.639 164.348C530.639 164.348 525.102 165.167 529.679 170.308C534.255 175.45 533.182 170.308 533.182 170.308C533.182 170.308 527.306 168.105 530.639 164.348Z" fill="#E95426"/>
<path d="M534.081 175.136C534.765 174.452 534.407 172.986 533.282 171.86C532.156 170.735 530.69 170.377 530.006 171.061C529.322 171.745 529.679 173.212 530.805 174.337C531.93 175.463 533.397 175.82 534.081 175.136Z" fill="#F39B7E"/>
<path d="M548.14 173.99C548.936 172.611 548.902 171.102 548.064 170.618C547.226 170.135 545.902 170.86 545.106 172.238C544.311 173.616 544.345 175.125 545.182 175.609C546.02 176.093 547.344 175.368 548.14 173.99Z" fill="#F39B7E"/>
<path d="M530.471 168.557C530.471 168.557 534.849 170.449 537.42 174.998C537.42 174.998 537.929 172.794 535.443 170.478C532.363 167.624 530.471 168.557 530.471 168.557Z" fill="#EE774D"/>
<path d="M542.617 176.015C542.617 176.015 543.153 170.535 546.911 166.919C546.911 166.919 544.764 167.06 543.04 169.998C540.809 173.755 542.617 176.015 542.617 176.015Z" fill="#EE774D"/>
<path d="M535.103 158.669C536.476 158.669 537.589 157.556 537.589 156.183C537.589 154.81 536.476 153.697 535.103 153.697C533.73 153.697 532.617 154.81 532.617 156.183C532.617 157.556 533.73 158.669 535.103 158.669Z" fill="white"/>
<path d="M543.918 158.359C545.291 158.359 546.404 157.246 546.404 155.873C546.404 154.5 545.291 153.387 543.918 153.387C542.545 153.387 541.432 154.5 541.432 155.873C541.432 157.246 542.545 158.359 543.918 158.359Z" fill="white"/>
<path d="M535.95 157.822C536.746 157.822 537.391 157.177 537.391 156.381C537.391 155.585 536.746 154.94 535.95 154.94C535.155 154.94 534.51 155.585 534.51 156.381C534.51 157.177 535.155 157.822 535.95 157.822Z" fill="#1D1E1C"/>
<path d="M544.708 157.596C545.504 157.596 546.149 156.951 546.149 156.156C546.149 155.36 545.504 154.715 544.708 154.715C543.913 154.715 543.268 155.36 543.268 156.156C543.268 156.951 543.913 157.596 544.708 157.596Z" fill="#1D1E1C"/>
<path d="M539.905 155.648C537.814 155.817 539.82 155.987 537.249 159.772C536.487 160.874 540.95 162.117 541.939 161.213C543.493 159.8 540.329 155.619 539.905 155.648Z" fill="#2E98D4"/>
<path d="M529.735 154.63L528.464 155.365C528.464 155.365 527.108 166.467 531.487 167.964C535.865 169.462 544.595 170.563 546.403 168.784C548.182 167.004 550.725 155.647 548.521 152.512C547.278 150.732 548.098 152.512 548.098 152.512C548.098 152.512 547.476 163.783 545.386 162.54C543.465 161.382 538.606 162.512 538.606 162.512C536.43 160.874 534.481 161.891 534.34 161.891C534.368 161.862 531.091 161.523 529.735 154.63Z" fill="#1D1D1B"/>
<path d="M534.707 162.54C534.707 162.54 536.317 164.348 538.662 163.133C538.662 163.133 539.001 164.461 540.781 164.32C540.781 164.32 539.17 167.427 535.837 165.535C533.718 164.348 534.707 162.54 534.707 162.54Z" fill="#C4924D"/>
<path d="M536.629 150.986H541.997L539.483 147.681L536.629 150.986Z" fill="#1D1D1B"/>
<path d="M528.407 155.986C528.407 155.986 537.815 152.285 539.312 148.726C539.312 148.726 542.363 152.257 548.747 153.415C548.747 153.415 551.29 148.613 549.03 144.658C544.962 137.595 531.035 140.166 528.294 145.421C527.193 147.539 526.825 152.568 528.407 155.986Z" fill="#F8B700"/>
<path d="M547.5 376.601C562.688 376.601 575 364.288 575 349.101C575 333.913 562.688 321.601 547.5 321.601C532.312 321.601 520 333.913 520 349.101C520 364.288 532.312 376.601 547.5 376.601Z" fill="#FF9E7C"/>
<path d="M545.438 353.407L551.884 352.931L552.967 356.814C552.967 356.814 570.402 358.849 565.832 334.519H570.27C570.27 334.519 575.739 355.731 561.077 360.883L562.768 371.951C562.768 371.951 553.575 379.85 537.725 374.804L539.785 366.219L540.921 361.966C540.921 361.966 517.965 357.713 526.418 335.364L531.702 336.315C531.702 336.315 524.86 351.663 542.612 356.92L545.174 357.026L545.438 353.407Z" fill="#FF5216"/>
<path d="M537.091 341.096V344.451C537.091 344.451 535.532 343.262 534.449 344.451C533.366 345.64 534.37 350.527 538.412 349.1C538.412 349.1 542.586 354.727 548.371 354.727C555.53 354.727 557.987 348.308 558.224 347.489C558.224 347.489 562.108 348.228 560.866 343.606C560.259 341.36 557.881 343.315 557.881 343.315L555.266 336.314L538.412 338.956L537.091 341.096Z" fill="#F4D3BA"/>
<path d="M536.247 343.157L537.093 343.131V344.478L537.463 343.104L557.434 342.285L557.883 343.342L557.751 342.259L558.094 342.232C558.094 342.232 558.385 330.952 546.761 331.507C535.085 332.035 536.247 343.157 536.247 343.157Z" fill="white"/>
<path d="M543.643 346.856C544.956 346.856 546.021 345.791 546.021 344.478C546.021 343.165 544.956 342.101 543.643 342.101C542.33 342.101 541.266 343.165 541.266 344.478C541.266 345.791 542.33 346.856 543.643 346.856Z" fill="white"/>
<path d="M551.753 346.354C553.066 346.354 554.131 345.289 554.131 343.976C554.131 342.663 553.066 341.599 551.753 341.599C550.44 341.599 549.375 342.663 549.375 343.976C549.375 345.289 550.44 346.354 551.753 346.354Z" fill="white"/>
<path d="M543.38 345.138C544.139 345.138 544.754 344.523 544.754 343.764C544.754 343.006 544.139 342.391 543.38 342.391C542.621 342.391 542.006 343.006 542.006 343.764C542.006 344.523 542.621 345.138 543.38 345.138Z" fill="#1D1E1C"/>
<path d="M551.464 344.69C552.222 344.69 552.837 344.075 552.837 343.316C552.837 342.557 552.222 341.942 551.464 341.942C550.705 341.942 550.09 342.557 550.09 343.316C550.09 344.075 550.705 344.69 551.464 344.69Z" fill="#1D1E1C"/>
<path d="M543.326 347.885C545.282 347.885 546.866 346.301 546.866 344.346C546.866 342.391 545.282 340.806 543.326 340.806C541.371 340.806 539.787 342.391 539.787 344.346C539.787 346.301 541.371 347.885 543.326 347.885Z" stroke="#E95426" stroke-width="0.528338"/>
<path d="M551.886 347.515C553.841 347.515 555.426 345.93 555.426 343.975C555.426 342.02 553.841 340.436 551.886 340.436C549.931 340.436 548.346 342.02 548.346 343.975C548.346 345.93 549.931 347.515 551.886 347.515Z" stroke="#E95426" stroke-width="0.528338"/>
<path d="M547.657 343.632C547.948 343.685 548.476 344.874 548.899 347.674C549.031 348.546 548.054 348.07 546.997 348.07C545.597 348.044 547.367 343.579 547.657 343.632Z" fill="#2E98D4"/>
<path d="M546.865 344.346L548.371 344.24" stroke="#E95426" stroke-width="0.528338"/>
<path d="M551.067 349.999C551.067 349.999 550.618 349.259 549.694 349.893C549.139 350.289 548.795 350.633 548.795 350.633C548.795 350.633 550.83 352.297 552.23 351.425C553.286 350.765 552.89 349.233 552.89 349.233C552.89 349.233 551.464 348.731 551.067 349.999Z" fill="#E95426"/>
<path d="M548.821 350.606C548.662 350.5 551.568 351.002 552.915 349.206C552.915 349.206 552.915 350.95 551.357 351.267C550.036 351.531 548.821 350.606 548.821 350.606Z" fill="#1D1E1C"/>
<path d="M536.934 348.282L536.221 352.509L539.259 352.033L536.934 348.282Z" fill="#2E98D4"/>
<path d="M559.175 346.222L558.066 350.316L560.628 349.894L559.175 346.222Z" fill="#2E98D4"/>
<path d="M527.185 335.496L530.672 336.315L531.148 335.126C531.148 335.126 534.001 334.703 534.503 331.824C534.688 330.82 534.899 330.265 534.793 330.133C534.476 329.737 532.522 332.405 532.522 332.405C532.522 332.405 534.054 326.725 533.473 326.408C532.627 325.933 531.333 330.556 531.333 330.556C531.333 330.556 532.31 325.378 531.544 325.246C530.937 325.14 529.457 330.371 529.457 330.371C529.457 330.371 530.329 325.325 529.642 324.929C529.035 324.559 527.714 330.45 527.714 330.45C527.714 330.45 527.899 327.491 526.948 327.201C525.997 326.91 526.763 332.537 527.529 333.805L527.185 335.496Z" fill="#F4D3BA"/>
<path d="M569.742 334.493L566.651 334.519L566.493 334.096C566.493 334.096 563.745 333.674 563.27 330.794C563.111 329.79 562.874 329.236 562.979 329.104C563.296 328.707 565.172 331.376 565.172 331.376C565.172 331.376 563.693 325.696 564.247 325.379C565.066 324.903 566.308 329.526 566.308 329.526C566.308 329.526 565.357 324.349 566.097 324.217C566.678 324.111 568.104 329.341 568.104 329.341C568.104 329.341 567.259 324.296 567.919 323.9C568.5 323.53 569.768 329.421 569.768 329.421C569.768 329.421 569.584 326.462 570.508 326.171C571.433 325.881 570.693 331.508 569.953 332.776L569.742 334.493Z" fill="#F4D3BA"/>
<path d="M555.716 316.951C555.716 319.778 554.263 322.525 551.568 323.899C551.198 324.084 550.248 328.099 550.38 327.703L545.386 327.016C544.99 327.281 544.673 324.295 544.251 324.084C541.371 322.578 539.812 321.337 539.812 316.951C539.812 312.566 543.379 309 547.764 309C552.149 309 555.716 312.54 555.716 316.951Z" fill="#FFD460"/>
<path d="M545.889 327.175C545.994 326.197 547.289 315.076 544.436 314.944C541.583 314.812 547.051 326.567 547.051 326.567C547.051 326.567 550.512 315.049 547.262 314.944C545.017 314.864 548.398 326.699 548.398 326.699C548.398 326.699 553.285 316.185 550.512 314.944C547.738 313.702 549.587 327.624 549.587 327.624" stroke="#1D1D1B" stroke-width="0.132085" stroke-miterlimit="10"/>
<path d="M545.254 326.938L545.598 329.764L549.692 330.108L550.353 327.704L545.254 326.938Z" fill="#CECDCE"/>
<path d="M558.336 332.65C559.306 330.969 558.515 328.696 556.569 327.573C554.623 326.449 552.26 326.901 551.289 328.581C550.319 330.262 551.11 332.535 553.056 333.658C555.002 334.782 557.365 334.33 558.336 332.65Z" fill="white"/>
</g>
<defs>
<clipPath id="clip0_94_2">
<rect width="640" height="589" fill="white"/>
</clipPath>
</defs>
</svg>
